<svg xmlns="http://www.w3.org/2000/svg" viewBox="0 0 1373.09 768"><defs><style>.cls-1{fill:#fff;}.cls-2{fill:#62e7ad;}.cls-3{fill:none;stroke:#000;stroke-miterlimit:10;stroke-width:0.5px;}</style></defs><g id="Layer_2" data-name="Layer 2"><g id="Layer_1-2" data-name="Layer 1"><polygon class="cls-1" points="0 7.57 0 768 1366 768 1366 0 0 7.57"/><path class="cls-2" d="M1119.49,36.94c7.41,7.06,16.2,11.29,24.86,15.41,10.67,5.06,21.1,10.55,31.4,16.67,13.46,8,26,18,38.58,27.8,12.26,9.55,24.77,18.89,38.32,25.45,14.45,7,29.73,10.35,44.86,14.33,15.29,4,30.48,9.15,44.12,18.78,11,7.76,21.34,17.27,31.29,27.09V0H1096.25C1102.39,13.56,1109.38,27.31,1119.49,36.94Z"/><path class="cls-3" d="M841.3,7.57a4.13,4.13,0,0,1,0,.93c.84,2.93,1.65,5.87,2.4,8.83,8.53,33.31,12.75,68.45,26.94,99.81,6.93,15.32,16.45,28.15,27.21,40.56a480.68,480.68,0,0,0,34.61,35.86c25.22,23.64,52.66,45,82.28,62,13.49,7.71,27.6,14.81,42.34,19.33,17.79,5.45,35.8,10,53.56,15.56,17.52,5.48,34.8,12,51.08,20.91,15.88,8.69,30.72,19.71,45.21,30.77,28.65,21.87,56.21,45.68,87.41,63.4,14.38,8.17,28.75,15.89,42.33,25.59a344.56,344.56,0,0,1,36.25,30"/><path class="cls-3" d="M938.82,1.14a3,3,0,0,1,0,.73c.68,2.32,1.34,4.64,2,7,7,26.32,10.41,54.08,22,78.86,5.66,12.1,13.44,22.24,22.23,32.05a383.43,383.43,0,0,0,28.26,28.33c20.59,18.68,43,35.58,67.18,49,11,6.1,22.54,11.7,34.58,15.27,14.52,4.31,29.23,7.92,43.73,12.3,14.31,4.33,28.42,9.49,41.71,16.52,13,6.86,25.09,15.57,36.92,24.31,23.39,17.28,45.89,36.09,71.37,50.09,11.75,6.46,23.48,12.56,34.57,20.23a279.64,279.64,0,0,1,29.6,23.68"/></g></g></svg>